<svg xmlns="http://www.w3.org/2000/svg" viewBox="0 0 200 320" width="100%" height="100%">
  <defs>
    <linearGradient id="harutoHair" x1="0%" y1="0%" x2="0%" y2="100%">
      <stop offset="0%" stop-color="#0ea5e9" />
      <stop offset="100%" stop-color="#1c4f7c" />
    </linearGradient>
  </defs>
  <!-- Piernas -->
  <rect x="85" y="220" width="10" height="90" fill="#1c4f7c" />
  <rect x="105" y="220" width="10" height="90" fill="#1c4f7c" />
  <!-- Zapatos -->
  <ellipse cx="90" cy="310" rx="15" ry="8" fill="#333" />
  <ellipse cx="110" cy="310" rx="15" ry="8" fill="#333" />
  <!-- Happi coat (Chaqueta festival) -->
  <path d="M 70 140 L 130 140 L 140 240 L 60 240 Z" fill="#1c4f7c" />
  <!-- Detalles naranja en happi -->
  <rect x="75" y="220" width="50" height="10" fill="#f97316" />
  <!-- Remera interior -->
  <path d="M 90 140 L 110 140 L 105 180 L 95 180 Z" fill="#fff" />
  <!-- Brazos -->
  <path d="M 70 140 L 40 190 L 50 200 L 75 160 Z" fill="#1c4f7c" />
  <path d="M 130 140 L 160 190 L 150 200 L 125 160 Z" fill="#1c4f7c" />
  <!-- Manos -->
  <circle cx="45" cy="195" r="8" fill="#fef08a" />
  <circle cx="155" cy="195" r="8" fill="#fef08a" />
  <!-- Cabeza -->
  <circle cx="100" cy="90" r="35" fill="#fef08a" />
  <!-- Cinta cabeza -->
  <rect x="65" y="70" width="70" height="12" rx="3" fill="#f97316" />
  <path d="M 65 75 L 50 65 L 55 85 Z" fill="#f97316" />
  <!-- Ojos -->
  <ellipse cx="85" cy="95" rx="4" ry="6" fill="#1c4f7c" />
  <ellipse cx="115" cy="95" rx="4" ry="6" fill="#1c4f7c" />
  <!-- Sonrisa (más aventurera) -->
  <path d="M 90 105 L 110 105 L 100 112 Z" fill="#fff" />
  <!-- Cabello corto -->
  <path d="M 60 70 C 60 30, 140 30, 140 70 C 130 60, 110 50, 100 55 C 90 50, 70 60, 60 70 Z" fill="url(#harutoHair)"/>
  <path d="M 60 70 L 50 90 L 65 80 Z" fill="url(#harutoHair)"/>
  <path d="M 140 70 L 150 90 L 135 80 Z" fill="url(#harutoHair)"/>
</svg>
